<?xml version="1.0" standalone="no"?>
<!DOCTYPE svg PUBLIC "-//W3C//DTD SVG 20010904//EN"
 "http://www.w3.org/TR/2001/REC-SVG-20010904/DTD/svg10.dtd">
<svg version="1.0" xmlns="http://www.w3.org/2000/svg"
 width="260.000000pt" height="260.000000pt" viewBox="0 0 260.000000 260.000000"
 preserveAspectRatio="xMidYMid meet">
<metadata>
Created by potrace 1.11, written by Peter Selinger 2001-2013
</metadata>
<g transform="translate(0.000000,260.000000) scale(0.100000,-0.100000)"
fill="#000000" stroke="none">
<path d="M1391 2543 c-15 -54 -14 -96 5 -143 27 -68 6 -57 -27 14 -17 37 -35
63 -41 60 -6 -4 -14 0 -19 7 -6 10 -10 5 -15 -19 -4 -18 -15 -37 -26 -43 -10
-5 -18 -15 -17 -22 1 -7 1 -28 0 -47 l-2 -35 -23 27 -24 27 -38 -20 c-23 -11
-40 -15 -42 -9 -2 5 -9 10 -15 10 -7 0 -32 14 -57 30 -25 16 -56 30 -70 30
l-24 0 24 -17 c46 -32 90 -76 84 -85 -5 -8 -64 21 -64 32 0 3 -17 14 -37 24
-21 10 -59 29 -86 43 -28 15 -55 22 -67 18 -19 -6 -18 -8 8 -30 40 -35 23 -38
-26 -4 -23 15 -42 25 -42 20 0 -11 34 -41 48 -41 6 0 17 -10 23 -22 9 -19 9
-21 -2 -10 -7 6 -20 12 -28 12 -8 0 -24 9 -35 19 -20 18 -86 39 -86 27 0 -3
13 -20 28 -38 29 -33 47 -68 35 -68 -9 0 -93 50 -122 72 -28 21 -76 27 -49 6
8 -7 18 -21 21 -31 6 -16 4 -16 -22 -2 l-29 14 8 -34 c9 -42 4 -43 -40 -10
-59 44 -65 27 -9 -25 30 -27 51 -50 47 -50 -4 0 -29 13 -55 28 -35 20 -56 26
-78 22 l-30 -6 30 -19 c40 -26 55 -41 55 -55 0 -8 -6 -8 -21 0 -37 20 -34 0 5
-31 20 -17 35 -34 32 -36 -3 -3 -19 6 -36 21 -38 31 -61 35 -34 5 19 -21 19
-22 -3 -15 -25 8 -30 -2 -11 -24 7 -8 4 -7 -8 3 -27 22 -62 24 -44 2 8 -9 9
-15 2 -15 -6 0 -14 5 -17 10 -3 6 -11 10 -17 10 -6 0 -3 -9 7 -20 14 -16 21
-18 32 -8 12 10 17 9 24 -5 6 -9 24 -30 40 -45 27 -25 28 -30 15 -41 -12 -10
-23 -8 -59 13 -63 37 -67 32 -17 -21 25 -26 33 -37 18 -24 -38 34 -35 14 4
-26 18 -19 26 -33 18 -33 -9 0 -8 -6 6 -21 15 -16 16 -21 4 -19 -8 1 -23 2
-32 1 -16 -1 -16 -3 -3 -18 25 -30 59 -69 85 -97 18 -20 20 -25 7 -20 -13 5
-16 2 -11 -11 6 -14 4 -16 -12 -7 -28 15 -49 -10 -22 -27 11 -7 18 -15 15 -18
-3 -3 -19 4 -35 16 -44 31 -52 26 -12 -9 40 -33 32 -39 -14 -11 -73 44 -100
33 -49 -21 28 -29 24 -51 -5 -30 -9 7 -24 15 -32 19 -8 3 -27 15 -42 25 -30
21 -60 26 -40 6 17 -17 15 -39 -3 -32 -11 5 -15 -1 -15 -20 l0 -27 -37 25
c-49 34 -55 24 -12 -20 33 -35 21 -39 -24 -8 -17 11 -57 9 -57 -3 0 -3 11 -14
25 -25 31 -24 32 -38 2 -31 l-22 5 23 -20 c12 -11 22 -24 22 -28 0 -4 -5 -3
-12 4 -7 7 -18 12 -26 12 -12 0 -12 -3 -2 -15 11 -13 10 -14 -4 -9 -9 4 -16 1
-16 -6 0 -10 -3 -10 -15 0 -9 7 -18 10 -22 6 -6 -6 3 -18 56 -72 18 -18 22
-27 13 -36 -8 -8 -18 -6 -37 6 -36 24 -44 12 -14 -22 13 -15 17 -21 9 -14 -29
25 -33 11 -5 -18 17 -18 23 -30 15 -30 -9 0 -7 -5 6 -15 18 -14 18 -14 -11
-15 -17 -1 -24 -4 -17 -7 6 -2 12 -10 12 -17 0 -7 16 -27 35 -46 25 -24 31
-36 22 -42 -8 -5 12 -32 68 -89 44 -45 69 -76 55 -69 -14 7 16 -30 65 -81 50
-52 122 -127 160 -167 39 -39 103 -100 143 -135 40 -34 161 -149 270 -255 132
-131 218 -207 263 -233 36 -21 69 -39 73 -39 4 0 20 -9 36 -20 39 -28 102 -36
119 -16 7 9 28 16 45 16 65 0 140 28 169 62 15 18 52 61 81 95 29 35 59 76 66
93 7 16 19 30 26 30 8 0 32 16 54 36 l40 36 32 -20 c18 -11 51 -25 73 -31 34
-9 42 -8 60 9 13 12 35 20 58 20 50 0 147 26 177 48 14 10 34 34 45 52 11 18
41 54 66 81 25 26 56 68 70 93 14 28 35 50 52 57 16 7 41 25 57 41 33 33 32
36 -21 141 -28 55 -28 59 -14 87 9 17 16 32 16 35 0 2 6 20 14 39 14 32 13 37
-22 102 -20 38 -54 103 -75 144 -40 77 -47 89 -85 151 -13 20 -23 42 -23 49 0
30 -104 223 -148 277 -27 32 -52 68 -56 80 -6 19 -69 93 -79 93 -2 0 -44 41
-93 90 -88 89 -196 180 -213 180 -13 0 -90 80 -119 123 -13 20 -31 37 -38 37
-12 0 -52 61 -94 145 -8 17 -24 31 -37 33 -18 3 -24 -4 -32 -35z m-230 -320
c13 -16 12 -17 -3 -4 -10 7 -18 15 -18 17 0 8 8 3 21 -13z m203 -151 c9 -18
11 -33 5 -43 -6 -10 -9 -7 -9 14 0 15 -4 27 -10 27 -5 0 -10 -12 -10 -27 -1
-23 -2 -25 -10 -11 -9 14 4 68 16 68 2 0 10 -13 18 -28z m-51 -56 c7 -18 -1
-26 -25 -26 -18 0 -25 20 -11 33 11 12 31 8 36 -7z m115 -7 c2 -10 -4 -15 -15
-14 -18 1 -23 6 -23 26 0 16 34 6 38 -12z m-388 -35 c0 -8 10 -19 23 -24 21
-8 21 -9 -5 -9 -18 -1 -28 -6 -28 -16 0 -19 -9 -19 -32 2 -21 19 -24 37 -4 30
9 -4 16 3 20 19 7 26 26 24 26 -2z m650 0 c0 -8 7 -14 16 -14 19 0 14 -20 -8
-34 -12 -7 -21 -5 -33 8 -10 9 -24 15 -32 12 -8 -3 -11 -1 -8 4 3 6 12 10 19
10 8 0 16 9 19 21 6 23 27 17 27 -7z m-327 -71 c-6 -59 -23 -72 -23 -19 0 19
-3 42 -6 50 -5 12 -2 15 10 10 10 -4 16 -1 16 7 0 7 2 10 4 8 2 -2 1 -28 -1
-56z m-96 -15 c-3 -8 -6 -5 -6 6 -1 11 2 17 5 13 3 -3 4 -12 1 -19z m183 18
c0 -3 -4 -8 -10 -11 -5 -3 -10 -1 -10 4 0 6 5 11 10 11 6 0 10 -2 10 -4z
m-590 -61 c-25 -6 -49 -9 -55 -6 -16 9 46 28 74 23 23 -5 21 -7 -19 -17z m100
9 c0 -2 -9 -4 -20 -4 -11 0 -20 4 -20 9 0 5 9 7 20 4 11 -3 20 -7 20 -9z m820
6 c0 -5 -10 -10 -22 -9 -22 0 -22 1 -3 9 11 5 21 9 23 9 1 1 2 -3 2 -9z m95 0
c14 -5 23 -14 20 -20 -4 -7 -12 -7 -25 0 -10 5 -31 10 -47 10 -22 0 -25 2 -13
10 19 12 32 12 65 0z m-705 -50 c25 -10 34 -10 56 5 15 9 23 12 20 6 -4 -6
-21 -18 -37 -26 -24 -13 -32 -14 -44 -3 -8 7 -21 19 -30 26 -9 7 -12 18 -8 25
5 8 9 7 11 -5 2 -9 16 -22 32 -28z m404 16 c-3 -8 -15 -17 -27 -21 -22 -7 -21
-8 3 -12 14 -3 30 -9 35 -15 7 -7 -1 -8 -25 -3 -41 8 -103 36 -96 42 2 3 13 0
25 -6 24 -13 71 4 71 26 0 8 4 12 10 8 5 -3 7 -12 4 -19z m376 -36 c15 -28
-10 -16 -34 16 -18 26 -18 26 3 15 11 -6 25 -20 31 -31z m-1180 0 c-22 -32
-30 -37 -30 -20 0 11 36 50 46 50 3 0 -4 -13 -16 -30z m132 9 c-53 -23 -72
-41 -72 -68 0 -27 -17 -27 -25 -1 -14 43 44 90 110 89 29 0 28 -1 -13 -20z
m943 7 c45 -19 66 -60 42 -84 -16 -15 -17 -15 -17 5 0 30 -29 61 -75 77 -36
13 -37 15 -12 15 15 1 43 -6 62 -13z m-685 -26 c0 -5 -12 -10 -27 -10 -22 0
-25 2 -13 10 20 13 40 13 40 0z m443 -47 c-139 -2 -367 -2 -505 0 -139 1 -26
2 252 2 278 0 391 -1 253 -2z m-323 -58 c0 -25 0 -25 -30 -10 -34 18 -40 7
-10 -20 25 -23 26 -39 1 -24 -10 7 -27 9 -37 5 -16 -6 -15 -9 11 -31 l30 -24
-31 -1 c-47 0 -50 -14 -7 -27 21 -6 30 -12 21 -12 -14 -1 -38 -28 -38 -44 0
-2 14 -1 31 1 l31 5 -17 -27 c-20 -30 -10 -34 25 -9 22 16 23 16 17 -1 -4 -10
-7 -24 -7 -32 0 -12 -34 -14 -200 -14 l-200 0 0 145 0 145 205 0 205 0 0 -25z
m60 18 c0 -5 -4 -13 -8 -20 -6 -9 -11 -7 -20 7 -11 17 -10 20 8 20 11 0 20 -3
20 -7z m50 -2 c0 -5 -7 -14 -15 -21 -13 -10 -15 -9 -15 9 0 12 6 21 15 21 8 0
15 -4 15 -9z m430 -136 l0 -145 -197 2 -197 3 -7 28 c-8 32 -7 32 26 11 31
-20 32 -11 3 28 -20 29 -20 30 -1 20 21 -12 63 -5 63 9 0 5 -6 9 -14 9 -7 0
-19 7 -26 15 -10 12 -7 15 14 21 35 8 33 24 -4 24 l-29 0 24 25 c26 25 32 45
16 45 -6 0 -13 -4 -16 -10 -3 -5 -15 -10 -26 -10 -19 0 -19 1 -5 22 21 30 20
45 -1 26 -33 -28 -40 -29 -35 -3 l4 25 204 0 204 0 0 -145z m-425 47 c-3 -3
-11 0 -18 7 -9 10 -8 11 6 5 10 -3 15 -9 12 -12z m-20 -42 c3 -5 1 -10 -4 -10
-6 0 -11 5 -11 10 0 6 2 10 4 10 3 0 8 -4 11 -10z m32 -149 c15 -9 13 -10 -12
-5 -38 9 -38 8 -29 36 l7 23 8 -22 c4 -12 16 -26 26 -32z m-67 8 c0 -4 -11 -9
-25 -11 -29 -6 -31 -1 -8 24 13 14 18 16 25 6 4 -7 8 -16 8 -19z m612 -161 c7
-9 8 -21 4 -25 -5 -4 -11 -2 -13 5 -11 30 -20 8 -15 -39 3 -37 2 -50 -7 -45
-6 4 -11 27 -11 52 0 24 -4 44 -10 44 -5 0 -10 -7 -10 -15 0 -8 -4 -15 -10
-15 -15 0 -12 53 6 95 l16 38 19 -39 c10 -21 24 -47 31 -56z m-1134 49 c15
-41 16 -87 2 -87 -5 0 -10 7 -10 15 0 8 -4 15 -9 15 -6 0 -9 -18 -9 -41 0 -22
-5 -46 -12 -52 -10 -10 -11 -1 -7 41 4 30 2 52 -3 52 -6 0 -10 -4 -10 -10 0
-5 -4 -10 -10 -10 -17 0 -11 21 15 52 14 16 25 36 25 44 0 25 16 15 28 -19z
m440 -4 c-16 -2 -40 -2 -55 0 -16 2 -3 4 27 4 30 0 43 -2 28 -4z m-113 -20
c-16 -8 -39 -23 -49 -32 -12 -9 -16 -11 -12 -3 10 16 66 52 81 52 6 -1 -3 -8
-20 -17z m248 -35 c15 -11 27 -24 27 -30 0 -5 -15 3 -33 18 -19 16 -42 35 -53
42 -16 10 -15 11 6 1 14 -7 37 -21 53 -31z m230 4 c-14 -2 -21 -10 -20 -23 2
-23 37 -26 37 -4 0 13 4 14 21 4 15 -8 24 -8 32 0 16 16 51 -17 37 -34 -13
-16 -2 -45 16 -45 8 0 14 -10 14 -25 0 -14 -4 -25 -10 -25 -17 0 -33 -40 -21
-54 15 -18 -24 -55 -41 -38 -14 14 -48 -2 -48 -23 0 -22 -41 -18 -47 4 -6 23
-37 33 -53 17 -8 -8 -15 -6 -26 8 -9 12 -10 24 -5 29 5 5 7 16 4 23 -7 19 41
18 57 -1 21 -26 75 -18 112 15 18 17 41 30 51 30 28 0 14 25 -16 28 -14 2 -32
14 -41 26 -8 13 -26 26 -41 30 -45 12 -107 -35 -100 -75 4 -21 3 -20 -7 4 -7
15 -14 27 -17 27 -3 0 -6 13 -5 30 1 34 23 65 36 52 13 -13 48 -3 48 13 0 16
20 24 40 16 11 -4 9 -7 -7 -9z m-423 -11 c-69 -7 -124 -30 -134 -56 -13 -34
-5 -110 15 -152 20 -42 21 -57 7 -165 -1 -10 -8 -18 -15 -18 -9 0 -9 8 3 35
19 47 18 98 -5 143 -26 54 -32 98 -20 148 7 25 14 43 16 40 3 -3 22 4 41 15
26 13 54 19 97 17 l60 -1 -65 -6z m106 -17 c18 -14 18 -14 -6 -3 -31 14 -36
19 -24 19 6 0 19 -7 30 -16z m193 -111 c0 -25 -1 -26 -9 -8 -12 27 -12 35 0
35 6 0 10 -12 9 -27z m-44 -13 c3 -5 1 -10 -4 -10 -6 0 -11 5 -11 10 0 6 2 10
4 10 3 0 8 -4 11 -10z m-8 -75 c-1 0 -15 -11 -32 -25 l-30 -25 23 26 c12 14
22 32 22 40 0 12 2 12 10 -1 5 -8 8 -15 7 -15z m68 -45 c3 -6 17 -7 31 -4 18
5 24 2 24 -9 0 -9 7 -20 16 -25 14 -8 14 -13 4 -32 -10 -18 -9 -24 1 -31 10
-6 6 -10 -12 -18 -15 -5 -29 -17 -33 -26 -5 -14 -9 -15 -21 -5 -8 7 -22 9 -31
6 -11 -4 -18 1 -21 14 -3 11 -11 20 -18 20 -9 0 -12 13 -10 42 2 32 8 44 24
50 12 4 21 12 21 18 0 13 17 13 25 0z m-178 -56 c-3 -3 -12 -4 -19 -1 -8 3 -5
6 6 6 11 1 17 -2 13 -5z"/>
<path d="M1520 1195 c0 -8 7 -15 15 -15 8 0 15 7 15 15 0 8 -7 15 -15 15 -8 0
-15 -7 -15 -15z"/>
<path d="M1685 1193 c-3 -10 1 -13 12 -11 9 2 18 8 20 14 5 16 -25 13 -32 -3z"/>
<path d="M1524 1049 c-8 -14 11 -33 25 -25 6 4 11 11 11 16 0 13 -29 20 -36 9z"/>
<path d="M1680 1046 c0 -9 7 -16 16 -16 9 0 14 5 12 12 -6 18 -28 21 -28 4z"/>
<path d="M1600 1010 c0 -5 5 -10 10 -10 6 0 10 5 10 10 0 6 -4 10 -10 10 -5 0
-10 -4 -10 -10z"/>
<path d="M1482 938 c-18 -18 -15 -43 8 -63 29 -27 70 -7 70 34 0 39 -50 57
-78 29z"/>
</g>
</svg>
